<svg width="18" height="29" viewBox="0 0 18 29" fill="none" xmlns="http://www.w3.org/2000/svg">
<path d="M16.8901 9.53882L0.689679 8.75012C0.178088 8.75012 0.0928233 9.14803 0.11414 9.34698L0.647047 13.7168C0.715259 14.3137 1.10179 14.406 1.28653 14.3776L1.84076 14.335L2.33103 24.2897C2.36514 24.9036 2.78578 25.1281 2.99184 25.1637H7.48957V26.9969C7.47252 28.003 8.34933 28.2687 8.78987 28.2758C9.43788 28.2247 9.64252 27.5866 9.66383 27.274V25.1637H14.7584C15.2018 25.0954 15.3837 24.6236 15.4192 24.3963L15.739 18.2572L15.9735 13.2052H16.4211C16.9327 13.2052 17.1458 12.7789 17.1885 12.5657L17.4656 10.4554C17.6532 9.75625 17.1601 9.55304 16.8901 9.53882Z" fill="#FF2828"/>
<path d="M8.83217 13.8447C6.70055 13.93 5.91184 15.5571 5.78395 16.36C5.49404 16.5817 5.36473 16.3813 5.3363 16.2534C5.95021 13.9342 7.96531 13.4113 8.89612 13.4397C9.0496 13.6443 8.91744 13.7949 8.83217 13.8447Z" fill="white"/>
<path d="M8.47007 22.9255V21.9023H9.13087V22.9042C9.47193 22.9554 9.62825 23.3661 9.66378 23.565L9.62115 26.9969C9.6041 27.5938 9.21614 27.7714 9.02429 27.7856H8.68323C8.2228 27.7856 8.03664 27.3025 8.00111 27.0609V23.565C8.00111 23.1728 8.31375 22.9753 8.47007 22.9255Z" fill="white"/>
<path d="M13.7991 16.9356C13.7991 19.6904 11.5659 21.9237 8.81113 21.9237C6.05633 21.9237 3.82312 19.6904 3.82312 16.9356C3.82312 14.1808 6.05633 11.9476 8.81113 11.9476C11.5659 11.9476 13.7991 14.1808 13.7991 16.9356ZM4.74105 16.9356C4.74105 19.1835 6.56328 21.0057 8.81113 21.0057C11.059 21.0057 12.8812 19.1835 12.8812 16.9356C12.8812 14.6878 11.059 12.8656 8.81113 12.8656C6.56328 12.8656 4.74105 14.6878 4.74105 16.9356Z" fill="white"/>
<path fill-rule="evenodd" clip-rule="evenodd" d="M5.69888 7.93716C3.43083 7.10156 1.96854 5.89791 1.52089 5.40053V6.21054H0.62561C1.78522 7.54068 3.8799 8.29954 4.78229 8.5127C5.95894 8.8026 9.53582 9.0314 11.1772 9.10956C15.2187 9.10956 16.9965 8.27112 17.3802 7.8519H16.5915L16.6981 6.9353C15.2997 7.85616 12.9038 8.27112 11.8806 8.36349C13.4154 8.02243 15.2202 6.71503 15.9307 6.10396C16.9368 4.91025 17.0463 3.58864 16.9752 3.07705C16.7706 1.74691 15.6962 1.05911 15.1846 0.881474C13.3429 0.369883 11.6177 1.87623 10.9853 2.69336C9.94509 3.90412 9.04554 6.0258 8.7258 6.9353C8.53821 5.91212 7.99394 4.78946 7.74525 4.35603C6.96081 2.92357 5.82678 2.50862 5.35782 2.48019C4.04474 2.34377 3.3612 3.44653 3.18356 4.01497C2.77429 5.90785 4.68991 7.41847 5.69888 7.93716ZM4.68484 3.99332C4.1903 4.19795 4.29404 4.80333 4.40773 5.08045C4.48301 5.43856 5.05016 6.09652 5.32433 6.38074C6.2793 7.50624 7.54122 8.04341 8.05281 8.17131C8.06986 7.74498 7.98886 7.28313 7.94623 7.10549C7.57106 5.65681 6.61041 4.71131 6.17698 4.41964C5.52896 3.891 4.91221 3.91516 4.68484 3.99332ZM13.4815 3.22592C13.9505 3.09092 14.8884 3.01702 14.8884 3.80146C14.8316 4.2491 14.4408 5.35328 13.3323 6.18888C12.7284 6.68626 11.2178 7.73644 10.007 7.95813C9.97857 7.46075 10.2116 6.10788 11.3712 4.67543C11.6555 4.29884 12.4754 3.48171 13.4815 3.22592Z" fill="white"/>
</svg>
