<svg width="175" height="55" viewBox="0 0 175 55" fill="none" xmlns="http://www.w3.org/2000/svg">
<rect width="175" height="55" rx="4.00612" fill="#13213E"/>
<path d="M47.6618 19.0144L20.3237 17.6835C19.4604 17.6835 19.3165 18.3549 19.3525 18.6907L20.2518 26.0648C20.3669 27.072 21.0192 27.2278 21.3309 27.1799L22.2662 27.1079L23.0935 43.9065C23.151 44.9425 23.8609 45.3214 24.2086 45.3813H31.7985V48.4748C31.7698 50.1727 33.2494 50.6211 33.9928 50.6331C35.0863 50.5468 35.4316 49.47 35.4676 48.9425V45.3813H44.0647C44.8129 45.2662 45.1199 44.47 45.1798 44.0863L45.7194 33.7266L46.1151 25.2015H46.8705C47.7338 25.2015 48.0935 24.482 48.1654 24.1223L48.6331 20.5612C48.9496 19.3813 48.1175 19.0384 47.6618 19.0144Z" fill="#FF2828"/>
<path d="M34.0647 26.2806C30.4676 26.4245 29.1367 29.1703 28.9209 30.5252C28.4317 30.8993 28.2134 30.5612 28.1655 30.3454C29.2014 26.4317 32.6019 25.5492 34.1727 25.5972C34.4317 25.9425 34.2086 26.1967 34.0647 26.2806Z" fill="white"/>
<path d="M33.4532 41.6043V39.8777H34.5683V41.5683C35.1439 41.6546 35.4077 42.3477 35.4676 42.6834L35.3957 48.4748C35.3669 49.482 34.7122 49.7817 34.3885 49.8057H33.813C33.036 49.8057 32.7218 48.9904 32.6619 48.5827V42.6834C32.6619 42.0215 33.1894 41.6882 33.4532 41.6043Z" fill="white"/>
<path d="M42.446 31.4964C42.446 36.1451 38.6775 39.9136 34.0288 39.9136C29.38 39.9136 25.6115 36.1451 25.6115 31.4964C25.6115 26.8476 29.38 23.0791 34.0288 23.0791C38.6775 23.0791 42.446 26.8476 42.446 31.4964ZM27.1605 31.4964C27.1605 35.2896 30.2355 38.3646 34.0288 38.3646C37.822 38.3646 40.897 35.2896 40.897 31.4964C40.897 27.7031 37.822 24.6281 34.0288 24.6281C30.2355 24.6281 27.1605 27.7031 27.1605 31.4964Z" fill="white"/>
<path fill-rule="evenodd" clip-rule="evenodd" d="M28.777 16.3116C24.9496 14.9015 22.482 12.8703 21.7266 12.031V13.3979H20.2158C22.1727 15.6425 25.7074 16.9231 27.2302 17.2828C29.2158 17.772 35.2518 18.1581 38.0216 18.29C44.8417 18.29 47.8417 16.8751 48.4892 16.1677H47.1583L47.3381 14.6209C44.9784 16.1749 40.9352 16.8751 39.2086 17.031C41.7986 16.4555 44.8441 14.2492 46.0432 13.2181C47.741 11.2037 47.9257 8.97346 47.8057 8.11015C47.4604 5.86555 45.6475 4.70488 44.7842 4.40512C41.6763 3.54181 38.765 6.08378 37.6978 7.46267C35.9424 9.50584 34.4245 13.0862 33.8849 14.6209C33.5683 12.8943 32.6499 10.9998 32.2302 10.2684C30.9065 7.85116 28.9928 7.15092 28.2014 7.10296C25.9856 6.87275 24.8321 8.73366 24.5324 9.69289C23.8417 12.8871 27.0743 15.4363 28.777 16.3116ZM27.0658 9.65635C26.2312 10.0017 26.4063 11.0233 26.5981 11.4909C26.7252 12.0952 27.6823 13.2055 28.1449 13.6851C29.7564 15.5844 31.8859 16.4909 32.7492 16.7067C32.778 15.9873 32.6413 15.2079 32.5694 14.9082C31.9363 12.4635 30.3152 10.868 29.5838 10.3758C28.4902 9.48369 27.4495 9.52446 27.0658 9.65635ZM41.9102 8.36137C42.7016 8.13355 44.2843 8.00885 44.2843 9.33259C44.1884 10.088 43.5289 11.9513 41.6584 13.3614C40.6392 14.2007 38.0901 15.9729 36.0469 16.347C35.9989 15.5077 36.3922 13.2247 38.3491 10.8074C38.8287 10.1719 40.2124 8.79302 41.9102 8.36137Z" fill="white"/>
<path fill-rule="evenodd" clip-rule="evenodd" d="M79.5583 16.3837C81.7838 16.9465 85.5105 19.325 85.5105 20.1828C85.5105 20.4779 82.6775 23.4762 82.3988 23.4762C82.3093 23.4762 81.9156 23.2019 81.5239 22.8666C81.1322 22.5313 80.3091 21.9843 79.6944 21.651C78.6026 21.0589 78.528 21.045 76.4162 21.045C74.3996 21.045 74.1862 21.0794 73.2227 21.5599C70.9223 22.707 69.625 24.5347 69.2466 27.1609C68.7398 30.6789 70.2736 33.8305 73.2009 35.2858C74.1881 35.7765 74.3925 35.8098 76.4162 35.8109C78.3062 35.8118 78.6957 35.7583 79.5226 35.3847L80.4681 34.9573V31.4678V27.9783H82.8092H85.1503V32.922V37.8657L84.3286 38.431C81.7542 40.2021 77.7245 41.1776 74.6077 40.7842C71.565 40.3998 69.2999 39.3242 67.3249 37.3256C65.9538 35.9379 65.1403 34.6467 64.4808 32.8109C64.0402 31.5834 64.0061 31.2731 64.0005 28.4285C63.995 25.554 64.024 25.2864 64.4749 24.0461C65.1561 22.1731 65.9728 20.8786 67.3296 19.522C69.8569 16.9946 73.1953 15.7957 77.0371 16.0358C77.8738 16.0882 79.0083 16.2447 79.5583 16.3837ZM104.555 16.4658C108.783 17.6749 111.968 20.9739 113 25.2129C113.407 26.8846 113.398 30.0104 112.981 31.67C111.881 36.042 108.686 39.2689 104.239 40.4973C102.496 40.9788 99.5231 40.9471 97.6662 40.427C92.0151 38.8441 88.752 34.4518 88.752 28.4285C88.752 24.192 90.3974 20.6751 93.4207 18.4502C94.8246 17.4168 95.3019 17.1681 96.8614 16.656C99.3026 15.8542 102.168 15.7833 104.555 16.4658ZM139.316 18.3862L139.367 20.59L133.464 20.6373L127.56 20.6849L127.511 23.9714L127.462 27.258H132.689H137.915V29.509V31.7601H132.696H127.477L127.428 36.2172L127.38 40.6743H124.859H122.338L122.291 28.6086C122.266 21.9725 122.284 16.4408 122.331 16.316C122.4 16.1372 124.199 16.099 130.842 16.1359L139.266 16.1827L139.316 18.3862ZM148 28.4334V40.7742L145.434 40.7242L142.868 40.6743L142.821 28.6086C142.795 21.9725 142.813 16.4417 142.86 16.3178C142.923 16.1525 143.618 16.0927 145.473 16.0927H148V28.4334ZM98.4278 21.3809C96.4467 22.2147 94.9849 23.8154 94.3796 25.8137C93.9786 27.138 93.9815 29.7282 94.3856 31.0633C95.0011 33.0976 96.6118 34.7771 98.6932 35.5556C100.202 36.1198 102.658 35.9991 104.03 35.2935C106.565 33.9904 108.021 31.4851 108.021 28.4285C108.021 25.3726 106.567 22.8711 104.03 21.5617C103.207 21.1367 102.81 21.0565 101.268 21.0043C99.6839 20.9507 99.3419 20.996 98.4278 21.3809Z" fill="white"/>
</svg>
